<svg version="1.1" id="Layer_1" xmlns="http://www.w3.org/2000/svg" xmlns:xlink="http://www.w3.org/1999/xlink" x="0px" y="0px"
	 width="100%" viewBox="0 0 1024 1024" enable-background="new 0 0 1024 1024" xml:space="preserve">
<path fill="#000000" opacity="1.000000" stroke="none" 
	d="
M874.587036,541.464722 
	C889.449524,565.233704 897.658936,590.939270 900.258057,618.324524 
	C904.512146,663.146423 892.498291,704.426086 871.338013,743.400269 
	C853.228394,776.755615 828.706970,804.930786 799.901489,829.440369 
	C774.333130,851.195801 746.240601,868.808594 714.757935,880.850708 
	C686.293335,891.738464 656.832520,896.261169 626.532166,894.162842 
	C578.030884,890.804016 535.802795,871.833374 498.543274,841.124634 
	C479.524719,825.449707 462.936493,807.537048 449.022797,787.167358 
	C448.057465,785.754089 447.479004,783.764404 443.768036,783.611755 
	C458.881897,821.747009 479.867584,854.894165 511.541382,880.334900 
	C543.043152,905.637512 578.792358,921.618835 620.076538,925.121948 
	C618.561035,927.868225 616.530640,927.736572 614.939392,928.166077 
	C598.827759,932.514771 582.352722,934.936096 565.855835,937.193726 
	C544.686279,940.090881 523.405151,940.786133 502.057648,940.456543 
	C495.539581,940.355835 489.103882,939.544128 482.624756,939.146667 
	C479.408478,938.949341 476.661255,937.655212 474.072174,935.553833 
	C434.315002,903.284485 406.079498,863.137268 390.916229,814.070251 
	C386.782501,800.693848 384.243042,786.957520 382.688721,773.042908 
	C382.582367,772.090759 382.862030,770.994873 381.440918,770.124329 
	C378.169189,772.618225 378.712067,776.614197 378.482178,779.858032 
	C375.898346,816.315186 384.338684,850.189453 402.613678,881.778198 
	C413.146973,899.985107 426.497528,915.830505 441.748627,930.182312 
	C442.820160,931.190674 444.142242,932.013611 444.885529,934.831543 
	C410.121063,929.493896 377.157898,919.987488 345.503998,906.117859 
	C245.546387,862.319885 171.329468,791.453064 125.218040,692.482056 
	C36.729042,502.554169 99.051788,275.264771 276.334564,157.181915 
	C451.502319,40.507805 662.965698,78.195412 783.934631,183.258469 
	C781.631226,186.879547 777.936340,188.851425 774.433838,190.938736 
	C741.723267,210.432724 707.190247,226.186295 672.006042,240.575668 
	C659.058716,245.870773 646.015198,250.930618 633.010376,256.084839 
	C630.703918,256.998962 628.299500,257.731293 626.510254,260.169159 
	C630.366699,266.668518 636.574341,270.727112 642.772766,274.378937 
	C663.348206,286.500854 685.794006,289.687897 709.254395,287.079315 
	C721.139832,285.757751 732.878479,283.481995 744.961426,283.556396 
	C770.620300,283.714478 792.202881,293.275177 810.891907,310.362122 
	C814.024353,313.226044 814.882263,316.111145 813.315796,320.098175 
	C809.749634,329.174561 806.419556,338.343658 802.990356,347.483551 
	C799.472900,346.640625 797.993958,344.314026 796.273682,342.361877 
	C786.028320,330.735992 774.828674,320.442261 759.699280,315.442444 
	C752.551331,313.080261 745.276550,311.606171 737.727966,311.263428 
	C717.627563,310.350769 697.411987,312.577698 676.665222,308.387634 
	C677.910950,310.859344 679.568176,311.103271 680.970032,311.563232 
	C687.294861,313.638367 693.573730,315.903778 699.998718,317.613892 
	C716.757935,322.074585 729.627502,332.312195 741.266663,344.573029 
	C751.943787,355.820343 762.626465,367.135101 776.944702,373.933258 
	C793.724609,381.900177 811.250549,385.236206 829.817017,382.263458 
	C834.294922,381.546448 838.808472,380.233673 843.542542,380.779877 
	C843.728577,383.878632 841.766907,385.451660 840.471619,387.259460 
	C833.485107,397.010712 826.206299,406.559021 819.443420,416.460846 
	C816.719971,420.448395 813.638855,421.786102 809.000916,421.328033 
	C779.354004,418.400208 754.221069,406.511108 734.726807,383.731567 
	C727.479431,375.262787 720.872803,366.242218 714.049683,357.414795 
	C707.737183,349.248016 699.316284,344.020813 690.024658,340.031769 
	C681.913086,336.549347 673.646912,333.420227 665.587402,329.824799 
	C651.247803,323.427887 638.828735,314.309662 628.244324,302.693207 
	C627.265564,301.618988 626.463318,300.247314 624.777893,299.852600 
	C622.747803,300.652649 622.414856,302.502686 622.403015,304.317535 
	C622.333984,314.880646 618.812622,324.616943 615.023254,334.216858 
	C612.754944,339.963318 612.516846,345.609894 614.355469,351.289001 
	C616.944885,359.287170 620.876709,366.515228 627.013062,372.526154 
	C630.162048,375.610809 633.388184,376.273102 637.440491,375.246918 
	C647.279480,372.755280 657.189148,370.534943 666.990967,367.908783 
	C670.333252,367.013306 672.053223,367.690826 673.736633,370.794159 
	C681.278137,384.696381 688.444275,398.860138 698.589600,411.152130 
	C701.658936,414.870850 705.081848,418.296906 708.321960,421.875916 
	C709.509094,423.187256 711.305908,424.105438 711.304443,427.071747 
	C648.318359,433.447083 600.046509,464.704773 563.812256,515.826843 
	C618.669250,461.580627 682.366638,433.210663 760.083191,453.594330 
	C809.601990,466.582245 847.277405,497.615753 874.587036,541.464722 
M693.090759,828.723450 
	C658.002747,842.501404 621.602905,847.344971 584.009827,844.434631 
	C584.786072,845.213440 585.534119,845.504944 586.303101,845.722473 
	C612.365356,853.093506 638.566406,852.550903 664.858887,847.113647 
	C697.466431,840.370361 727.112610,826.975769 754.376648,807.928345 
	C795.407654,779.262756 826.002808,742.405029 843.055359,695.057068 
	C852.407227,669.090515 855.823608,642.245667 849.984863,614.992798 
	C841.878601,577.156128 820.703979,547.788635 788.905273,526.310974 
	C759.169189,506.226379 726.199219,497.772430 690.565491,504.142548 
	C648.196899,511.716736 615.777405,535.165161 590.987122,569.773804 
	C573.843750,593.706970 562.723389,620.622131 552.258362,647.890564 
	C545.271790,666.095337 537.702576,684.013062 525.712830,699.737488 
	C506.948517,724.346619 483.199768,727.318604 459.987427,707.071899 
	C443.064941,692.311462 431.702271,673.558594 423.696198,652.750122 
	C418.178894,638.410156 416.130920,623.112183 411.937317,608.389709 
	C406.158447,588.101746 398.059204,569.437256 379.958435,556.881165 
	C376.549164,554.516235 378.969727,552.675110 380.573212,550.839905 
	C401.420135,526.980835 425.174622,506.444611 451.520660,488.884705 
	C452.979828,487.912170 454.256836,486.344452 457.331573,486.925171 
	C447.260742,525.475159 443.057312,564.454529 448.870728,604.073181 
	C451.476746,602.154785 451.826843,599.444397 452.670685,597.001282 
	C471.765961,541.716125 502.507935,493.690643 543.314880,452.012085 
	C562.490601,432.426697 583.472534,414.973602 606.562439,400.108490 
	C611.977478,396.622375 612.179504,395.152039 607.953735,390.934570 
	C601.795288,384.788269 597.641357,377.384827 594.717651,369.383789 
	C592.902466,364.416473 590.160278,361.841583 584.886292,361.016296 
	C575.041748,359.475891 565.959839,355.919830 558.264771,349.272522 
	C555.916321,347.243805 555.054016,345.623688 557.962769,343.390198 
	C569.316528,334.672119 572.555725,313.797241 566.387817,299.130402 
	C564.147217,293.802490 560.078247,290.910645 554.572144,290.438904 
	C548.780945,289.942719 544.253296,292.731293 541.131714,297.521240 
	C538.295227,301.873627 535.425049,306.691956 535.328308,311.734406 
	C535.086060,324.360809 528.106201,329.833130 516.746887,331.647797 
	C516.427307,331.698822 516.127075,331.888000 515.824646,332.027557 
	C512.130066,333.732178 510.302338,332.708527 509.908325,328.496277 
	C509.202118,320.946472 506.596405,313.929504 503.297607,307.141693 
	C501.183289,302.791168 498.382965,301.127655 493.287354,302.692871 
	C457.622406,313.647858 421.486389,322.796722 384.899567,330.118286 
	C381.690521,330.760468 380.350525,332.248108 380.122314,335.382507 
	C379.216492,347.824890 378.066193,360.250824 377.282318,372.700195 
	C376.819550,380.049469 377.782227,381.044556 385.022034,380.616089 
	C390.785950,380.274994 394.097961,382.238495 396.443726,387.804077 
	C403.297974,404.066559 410.742767,420.074829 420.046631,435.144653 
	C426.340637,445.339233 430.630524,447.130676 441.985931,442.765411 
	C462.482666,434.885956 481.784973,424.704834 498.403900,410.195801 
	C513.990173,396.588318 526.543762,380.841187 529.866943,359.495850 
	C530.005066,358.608582 530.486328,357.976044 531.850464,358.239044 
	C532.204834,359.860474 532.610291,361.605530 532.959412,363.361755 
	C533.121094,364.175201 533.224304,365.007782 533.267456,365.836212 
	C534.616028,391.727966 527.637085,414.252167 506.740570,431.085754 
	C504.422791,432.952911 504.014648,434.922852 505.124512,437.643555 
	C507.513733,443.500397 509.512054,449.521301 512.025330,455.321228 
	C513.567688,458.880524 512.938477,461.387054 510.427856,464.302887 
	C497.465485,479.357208 485.881683,495.396027 476.100403,512.743164 
	C472.888916,518.438782 470.220367,524.450073 467.013336,530.180359 
	C465.340729,529.184387 465.676727,528.088379 465.770599,527.179077 
	C467.499634,510.426117 469.625061,493.760529 477.133911,478.351196 
	C478.759735,475.014771 479.743011,471.546967 479.714020,467.779297 
	C479.634827,457.497528 472.955719,452.872467 463.516296,456.791046 
	C456.599335,459.662445 450.046722,463.462616 442.818512,465.525726 
	C425.298248,470.526398 410.961121,466.994446 404.921661,451.628479 
	C400.100555,439.362183 393.988129,427.697357 388.747559,415.645325 
	C385.065918,407.178436 379.971313,401.966644 370.540833,400.113861 
	C360.474121,398.136078 357.106567,392.564667 356.644043,382.242279 
	C356.045563,368.886047 357.884064,355.624115 357.773499,342.296326 
	C357.722137,336.108063 357.074463,335.473236 351.250885,336.534851 
	C330.466583,340.323669 309.732758,344.415863 288.891907,347.861328 
	C267.893188,351.332886 246.840485,354.585876 225.717865,357.169830 
	C204.591553,359.754272 183.411316,362.053131 162.144485,363.288422 
	C159.771591,363.426239 158.608017,364.585785 157.773209,366.649231 
	C152.526627,379.617615 147.761307,392.759033 143.549835,406.097168 
	C143.138535,407.399811 142.429932,408.930298 143.823868,410.719696 
	C150.157486,408.586578 156.579590,406.365356 163.041336,404.266052 
	C168.079102,402.629303 169.598984,403.452759 170.116226,408.531464 
	C170.777313,415.022400 172.384644,421.304443 173.968491,427.578156 
	C180.792160,454.607330 189.304703,481.027649 202.918655,505.541107 
	C204.940933,509.182434 204.988632,512.288147 200.624832,514.106873 
	C192.473694,517.504089 184.211533,520.590027 175.634613,522.782410 
	C171.925003,523.730591 170.145874,522.596924 169.449463,518.651062 
	C168.120911,511.123566 166.513458,503.631348 164.674500,496.210510 
	C159.256866,474.348816 151.945923,453.116638 142.876694,432.500214 
	C142.004196,430.516846 141.355286,428.175079 138.847397,426.940063 
	C138.278976,428.201538 137.697952,429.056519 137.500748,429.992371 
	C133.105301,450.853851 129.495132,471.885498 128.508392,493.171906 
	C127.607239,512.612305 128.000397,532.057678 130.008545,551.539673 
	C133.116119,581.687683 140.008072,610.828064 149.776306,639.411743 
	C151.127075,643.364319 152.858093,644.043518 156.765732,642.621277 
	C168.535965,638.337219 180.648087,636.619812 193.022339,639.815125 
	C197.121292,640.873535 201.344650,641.903015 204.991104,645.469116 
	C190.113922,656.366028 173.480301,656.085632 156.692368,654.561035 
	C158.666428,687.662231 245.168671,803.606384 275.378235,813.968140 
	C275.190033,813.026306 275.124603,812.224487 274.868866,811.488892 
	C268.961151,794.494629 262.896179,777.566101 253.533066,762.063538 
	C250.904892,757.712036 251.245178,756.022583 255.512756,754.326294 
	C262.475769,751.558533 269.527130,749.013733 276.507507,746.288574 
	C279.721558,745.033875 281.271942,745.891113 281.232910,749.436646 
	C281.177826,754.436768 281.699585,759.390503 282.228180,764.365845 
	C284.569489,786.403259 291.527710,806.929077 302.425537,826.109375 
	C306.359009,833.032227 310.492035,840.043457 317.575958,844.409729 
	C327.509521,850.532288 337.792572,856.032959 348.323395,861.056824 
	C349.797363,861.760010 351.331970,863.138489 353.233978,862.026001 
	C353.136322,861.452087 353.196259,861.024963 353.012054,860.836853 
	C349.169250,856.911194 345.218842,853.088135 341.446503,849.096619 
	C313.316132,819.331848 298.447815,784.187317 298.734863,742.999451 
	C298.929932,715.012756 307.996979,689.429504 320.249695,664.724121 
	C326.318695,652.487122 332.124054,640.126099 337.037292,627.363159 
	C339.607605,620.686279 340.857544,613.840393 339.211395,606.813843 
	C336.858826,596.771851 328.019348,590.092957 315.565125,588.313293 
	C311.918304,587.792114 308.091034,588.019043 303.831055,586.170837 
	C311.846252,576.970093 324.608276,576.217529 332.354340,568.052002 
	C331.286438,565.774414 329.533020,564.741760 327.957977,563.536255 
	C321.449951,558.555115 313.773529,556.310364 306.040710,554.202209 
	C303.040283,553.384216 300.630066,551.797729 301.081329,548.356995 
	C301.557220,544.728882 304.318512,543.664429 307.681519,543.665771 
	C309.559784,543.666504 311.269623,544.198181 313.023712,544.765808 
	C319.815918,546.963806 325.385193,551.227905 331.085114,555.283081 
	C332.640656,556.389771 334.067108,557.784058 336.993225,558.100037 
	C332.448212,551.365967 326.726959,547.209229 320.650421,543.445374 
	C317.909729,541.747803 315.576141,539.619568 317.197418,536.156860 
	C318.951447,532.410706 322.501404,533.047607 325.494507,534.103943 
	C329.793762,535.621277 333.336060,538.381165 336.206451,542.021729 
	C340.620789,547.620544 344.112518,553.763367 347.296204,560.146240 
	C346.312439,554.204285 344.794891,548.460754 342.416626,542.951721 
	C341.588318,541.032898 341.179199,539.000305 343.293304,537.582947 
	C345.297791,536.239197 347.145935,537.207764 348.830658,538.376526 
	C350.695435,539.670288 351.619141,541.646484 352.316010,543.726013 
	C354.122589,549.116943 355.651672,554.606445 355.266388,560.335449 
	C355.018860,564.015869 356.472595,565.741394 359.908417,566.754944 
	C363.072510,567.688293 366.182312,569.049683 369.053040,570.684387 
	C375.658112,574.445618 380.309937,579.959412 382.907684,587.175171 
	C377.381927,583.588135 373.971619,577.087769 365.947266,575.702454 
	C370.447601,585.433044 369.962921,594.820801 368.396362,604.247559 
	C365.587616,621.149536 359.852875,637.444946 357.826508,654.504456 
	C355.565155,673.542053 356.453705,691.870117 370.506775,707.007385 
	C371.612091,708.197998 372.802887,709.471497 372.570648,711.336243 
	C354.944366,725.812439 346.410461,747.948730 347.695160,765.080139 
	C350.350372,757.787048 353.408234,750.680969 357.004822,743.811218 
	C370.708557,717.636230 400.587219,704.220276 428.266022,711.799011 
	C439.711639,714.932983 449.450500,721.365173 459.327423,727.566406 
	C476.881348,738.587585 495.055695,741.948547 514.146973,731.589355 
	C525.213684,725.584351 533.815369,716.812012 541.021057,706.628052 
	C553.753113,688.633606 561.945923,668.421326 569.559387,647.926880 
	C570.274170,646.002686 570.259094,643.568420 572.727722,642.385742 
	C573.260071,642.644348 573.940308,642.812317 574.404358,643.223877 
	C588.269409,655.521301 593.830139,676.188110 587.510742,693.956543 
	C576.877991,723.852661 555.550110,742.328857 525.314575,750.905457 
	C520.899048,752.157959 516.359680,752.973694 510.884613,754.216980 
	C515.925903,755.800476 520.057251,755.950195 524.127380,755.471558 
	C541.245911,753.458435 556.841309,747.468018 569.922363,736.115479 
	C588.958191,719.595215 601.362061,699.597351 600.693604,673.338867 
	C600.456604,664.028137 596.789185,655.507385 594.152100,646.771729 
	C588.873230,629.284851 587.069702,611.910950 594.761169,594.577881 
	C598.494324,586.165039 604.871033,581.053162 613.982666,580.952332 
	C622.994019,580.852661 629.131470,586.194824 632.988892,594.161682 
	C636.532837,601.481201 638.236938,609.252747 638.170593,617.350464 
	C638.077698,628.695007 636.513550,639.886658 634.248596,650.993286 
	C628.704102,678.182678 617.966614,703.038513 600.938354,725.045349 
	C593.616394,734.508057 584.710693,742.413452 575.646179,750.159546 
	C593.065674,741.956543 606.884155,729.604370 617.687134,713.783875 
	C638.127808,683.849426 646.745239,650.208557 648.729736,614.502075 
	C649.515015,600.372681 647.612305,586.180603 649.700378,572.080261 
	C651.859253,557.502197 655.868835,543.727295 666.956116,533.120728 
	C682.687561,518.071350 703.497620,523.215759 710.551575,543.842407 
	C714.602356,555.687439 714.634460,567.597900 711.757690,579.720398 
	C705.938721,604.241150 697.017029,627.763123 688.972412,651.568848 
	C686.650574,658.439758 683.613403,665.087097 682.107300,672.557312 
	C684.014709,671.959229 684.692566,670.724243 685.333374,669.629028 
	C694.172302,654.522644 702.381714,639.102722 708.690613,622.729675 
	C714.146118,608.571289 716.637146,593.449951 722.570007,579.475281 
	C729.470215,563.221924 738.218811,548.464600 756.072449,541.829468 
	C772.113770,535.867920 786.626648,542.800354 791.382202,559.327759 
	C796.485046,577.062012 792.266235,593.720703 783.674316,609.307556 
	C777.732910,620.086121 770.884949,630.380737 764.167480,640.713074 
	C739.411621,678.790283 712.379395,715.048096 679.474426,746.633850 
	C662.473267,762.953369 644.817871,778.373535 623.837952,789.477112 
	C617.771484,792.687805 611.523254,795.555054 605.358398,798.579773 
	C606.284119,799.125488 606.903625,798.982117 607.519287,798.823425 
	C628.695557,793.361877 647.268127,782.714111 664.674988,769.858826 
	C689.416016,751.587219 709.435608,728.635132 728.872803,705.059021 
	C746.499939,683.678467 762.293213,661.020508 777.693115,638.023804 
	C786.243652,625.255188 797.231506,615.286194 813.437439,613.071289 
	C823.905701,611.640503 834.324707,618.242065 836.445007,628.503601 
	C839.539368,643.479187 834.780640,656.354309 824.988953,667.722961 
	C815.922424,678.249756 803.618958,683.454712 791.180176,688.279419 
	C768.598083,697.038391 749.070312,710.140442 732.019714,727.353149 
	C712.097900,747.464417 693.028748,768.485962 670.695129,786.102478 
	C645.441711,806.022095 617.255981,817.530090 584.654480,817.383911 
	C559.846069,817.272644 536.616394,811.007019 514.261169,800.762878 
	C512.387451,799.904297 510.595367,798.662354 508.245544,798.834839 
	C508.691284,800.558289 509.994263,801.125061 511.060638,801.834106 
	C544.751770,824.233093 581.345093,832.279663 621.036560,823.142517 
	C644.771423,817.678711 664.720459,804.665344 683.529968,789.727295 
	C693.721252,781.633789 702.117432,771.555359 712.525391,763.701477 
	C722.525208,756.155762 733.583557,751.499451 746.254578,751.792114 
	C760.939087,752.131226 768.319946,762.413269 764.328796,776.511230 
	C761.749573,785.621765 755.453064,791.993774 748.507690,797.853394 
	C732.250732,811.568726 713.538635,820.911011 693.090759,828.723450 
M285.034515,204.567825 
	C237.131134,240.154648 199.320099,284.218475 172.260803,337.243713 
	C173.966293,338.844666 175.197525,338.772034 176.316986,338.647766 
	C191.513000,336.960785 206.706924,335.252777 221.890930,333.461731 
	C223.997589,333.213196 225.316650,331.682190 226.407013,329.861389 
	C249.451035,291.380890 276.327972,255.945602 308.976776,224.990753 
	C327.404114,207.519501 346.697723,191.217773 368.266388,177.732056 
	C369.392792,177.027771 370.559509,175.502670 372.350159,177.418823 
	C327.202057,220.395172 292.274872,270.633301 265.002075,326.276581 
	C267.152588,327.885925 268.445435,327.427612 269.755280,327.204865 
	C284.336060,324.725708 298.877563,321.953247 313.524323,319.953613 
	C319.657135,319.116364 323.341187,316.709717 324.609833,310.674744 
	C324.847534,309.544128 325.348236,308.465729 325.758759,307.374969 
	C337.682953,275.695953 353.130920,245.947540 374.150482,219.268753 
	C376.447571,216.353210 378.609650,213.241028 381.862823,211.138794 
	C383.024506,212.859955 381.991760,213.957535 381.465271,215.118057 
	C368.184692,244.391953 359.309448,274.995117 353.832367,306.625366 
	C352.981995,311.536469 353.659241,312.149658 358.719360,311.198242 
	C385.378540,306.185608 411.725006,299.770935 438.017487,293.172485 
	C493.262329,279.308136 547.647156,262.565826 601.297363,243.450821 
	C605.554077,241.934219 610.019775,240.594818 614.549988,237.450104 
	C588.975159,205.087814 557.940125,179.814194 524.528503,156.871750 
	C526.587402,155.213303 527.839844,155.866974 529.053040,156.323868 
	C537.466431,159.492279 545.934021,162.528290 554.266602,165.897751 
	C587.443787,179.313705 615.858521,200.115524 642.692993,223.310135 
	C644.808472,225.138641 646.550720,225.867737 649.349060,224.703751 
	C672.107483,215.237457 694.727295,205.461502 717.015686,194.931519 
	C718.586792,194.189270 720.569946,193.806747 721.458862,190.829742 
	C667.040161,154.697815 607.047485,134.213120 541.897583,129.730927 
	C447.555176,123.240349 362.004120,148.231216 285.034515,204.567825 
M668.653320,663.223877 
	C671.513550,654.001465 674.388550,644.783691 677.230713,635.555725 
	C682.234436,619.309448 688.948303,603.674988 694.381470,587.586365 
	C697.199463,579.241699 698.440063,570.736816 694.774048,562.214783 
	C691.490967,554.582886 683.066711,551.984558 676.124817,556.442749 
	C673.108398,558.379883 670.774231,560.867981 669.053162,564.025085 
	C663.367493,574.454102 664.182068,585.530945 665.721375,596.671997 
	C667.714600,611.097412 668.211670,625.568420 665.876343,639.953308 
	C660.280762,674.419800 646.264587,704.985046 623.697876,731.817444 
	C592.234070,769.228821 546.809509,785.298401 498.543030,769.383850 
	C496.141846,768.592041 493.746643,767.296570 490.990814,767.790466 
	C491.051300,768.411438 490.964569,768.830444 491.134491,769.023743 
	C491.677338,769.641052 492.246460,770.280029 492.926788,770.725281 
	C517.197937,786.612244 543.708618,794.178772 572.647705,790.358948 
	C603.062683,786.344299 628.647522,771.867676 651.082153,751.449890 
	C675.688782,729.055481 695.122498,702.426758 713.206177,674.757202 
	C721.330017,662.326904 729.992859,650.342712 739.265076,638.745728 
	C746.360535,629.871338 754.694397,622.138672 761.836365,613.346985 
	C768.142212,605.584595 772.994629,597.034302 772.600281,586.593994 
	C772.069397,572.539856 759.644287,566.116028 747.841675,573.663818 
	C744.425171,575.848694 741.710632,578.696838 739.629333,582.236755 
	C736.123535,588.199280 734.028992,594.655151 732.355164,601.304565 
	C729.108154,614.203674 726.301758,627.224426 721.387390,639.655457 
	C709.774841,669.029663 691.600952,694.258179 671.474976,718.177368 
	C654.892578,737.885254 636.885681,756.057434 613.899231,768.552490 
	C599.052246,776.623047 583.314697,781.589478 566.514160,783.143616 
	C564.101196,783.366882 561.445740,784.016785 558.990601,782.438171 
	C560.289551,780.661560 561.916016,780.687500 563.321228,780.316406 
	C598.043274,771.148254 623.131470,749.211609 642.790161,720.190186 
	C654.489258,702.919067 661.834656,683.607605 668.653320,663.223877 
M806.264465,635.041931 
	C800.494995,634.666748 796.041321,637.181030 792.195190,641.251343 
	C784.754395,649.125916 781.671509,659.206604 778.024109,668.996094 
	C776.881714,672.062317 778.687500,672.935791 781.350647,672.693604 
	C786.994995,672.180298 792.427307,670.743835 797.841248,669.078491 
	C806.236084,666.496216 811.704773,660.713806 815.525574,653.232605 
	C819.976318,644.517944 816.352112,636.990234 806.264465,635.041931 
M625.565125,618.183655 
	C625.006958,616.451538 624.589844,614.657593 623.863098,612.999329 
	C621.999878,608.747864 618.847534,605.721985 614.112488,605.535950 
	C609.306641,605.346985 606.146606,608.313538 604.041260,612.471008 
	C602.368652,615.773926 601.351868,619.196716 601.272583,622.956482 
	C601.053467,633.351318 607.822449,640.834045 612.252441,649.240784 
	C613.698792,651.985596 615.791931,650.006348 616.749084,648.154358 
	C621.480469,638.998901 626.470276,629.893494 625.565125,618.183655 
M349.121338,577.467529 
	C345.771332,577.070374 343.665588,578.436035 343.287659,581.865417 
	C343.021515,584.280457 344.146973,586.068848 346.523407,586.722961 
	C349.043243,587.416565 351.234619,586.577209 352.285614,584.180176 
	C353.496735,581.417908 352.848267,579.023499 349.121338,577.467529 
z"/>
<path fill="#000000" opacity="1.000000" stroke="none" 
	d="
M940.925354,503.286102 
	C941.639893,551.989746 934.950439,599.085266 919.838623,645.270752 
	C916.998047,643.425110 918.016541,641.223206 918.114075,639.424011 
	C919.133850,620.613647 916.088379,602.320251 911.347412,584.223083 
	C908.252747,572.410278 903.285706,561.305664 898.379272,550.192871 
	C896.968018,546.996582 896.542847,543.857544 896.813599,540.490356 
	C901.500305,482.187622 892.187927,425.961578 870.341431,371.945892 
	C846.387390,312.719299 810.160156,262.051117 761.309021,220.624817 
	C760.676819,220.088699 759.875549,219.751984 759.419128,219.480469 
	C760.325500,216.299698 762.661865,215.760941 764.371338,214.641312 
	C773.286377,208.802261 782.529114,203.425232 791.137207,197.170959 
	C795.837402,193.756073 798.696716,194.607315 802.527344,198.219681 
	C828.940979,223.128052 852.215088,250.616714 872.115479,281.012421 
	C895.478943,316.697571 912.337708,355.320831 924.268616,396.118561 
	C930.666321,417.995422 934.681274,440.414978 937.415955,463.069489 
	C939.011597,476.288483 940.012573,489.541229 940.925354,503.286102 
z"/>
<path fill="#000000" opacity="1.000000" stroke="none" 
	d="
M211.177094,533.159790 
	C214.064682,550.514587 219.041061,566.873291 224.855911,582.983948 
	C229.882507,596.910645 235.093018,610.773499 242.671783,623.589905 
	C244.859772,627.290100 244.287079,629.389893 239.657990,630.694397 
	C231.827652,632.901001 224.234406,635.934509 216.475906,638.415161 
	C210.930374,640.188354 209.082108,639.078247 208.111954,633.451416 
	C202.794449,602.610229 192.786118,573.268066 179.926941,544.832947 
	C178.626862,541.958191 177.088516,539.190308 175.635971,536.385559 
	C174.031509,533.287537 174.635086,530.775757 177.903687,529.442871 
	C186.216934,526.052917 194.553528,522.708313 202.975128,519.601318 
	C206.711548,518.222839 209.021744,519.761597 209.512222,523.931580 
	C209.860428,526.892151 210.567459,529.810425 211.177094,533.159790 
z"/>
<path fill="#000000" opacity="1.000000" stroke="none" 
	d="
M220.767120,664.213623 
	C218.423035,660.146851 216.294647,656.379700 214.054016,652.680420 
	C212.329346,649.833008 212.826172,647.413696 215.689026,645.975952 
	C224.336456,641.632935 233.609100,638.874390 242.794373,635.978027 
	C245.851654,635.013977 247.017197,637.420227 247.506393,640.291260 
	C251.184113,661.874817 258.683655,682.330200 266.347290,702.706482 
	C269.978210,712.360474 274.715546,721.551025 279.670166,730.606750 
	C282.685669,736.118347 281.804565,738.311340 275.988403,740.243164 
	C268.729980,742.653992 261.497009,745.142395 254.267792,747.640137 
	C249.094482,749.427490 247.563416,748.639832 246.720474,743.465454 
	C242.216644,715.819214 231.980911,690.049072 220.767120,664.213623 
z"/>
<path fill="#000000" opacity="1.000000" stroke="none" 
	d="
M251.143112,560.803345 
	C247.409485,550.665283 247.484909,550.602112 258.102020,548.552307 
	C263.318420,547.545227 268.491486,546.314758 273.688171,545.204163 
	C278.510376,544.173706 280.013611,545.124939 280.217926,549.840942 
	C281.172638,571.873718 285.445190,593.319580 291.354675,614.496887 
	C292.926300,620.129150 295.012299,625.556458 297.488403,630.826904 
	C299.397491,634.890381 298.428528,637.973755 294.181244,638.966919 
	C285.957306,640.890015 277.635895,642.476746 269.283966,643.730469 
	C266.169830,644.197876 265.707367,641.177124 265.777252,638.793518 
	C266.289612,621.311584 262.067261,604.490295 258.670135,587.563782 
	C256.869598,578.592468 254.240234,569.825317 251.143112,560.803345 
z"/>
<path fill="#000000" opacity="1.000000" stroke="none" 
	d="
M244.510193,524.546448 
	C240.936234,501.217194 236.310837,478.610931 228.051117,456.892822 
	C226.699783,453.339600 228.185410,451.581024 231.643341,450.897858 
	C238.814407,449.481079 246.006027,448.147156 253.128494,446.514374 
	C256.755981,445.682831 258.242310,446.565369 258.563049,450.448456 
	C259.724884,464.514557 261.072632,478.568909 264.248871,492.369202 
	C267.381531,505.980316 270.509155,519.601868 276.564423,532.295837 
	C278.354156,536.047852 276.946808,538.204163 273.490906,539.074097 
	C265.921234,540.979553 258.292114,542.673462 250.638229,544.209412 
	C246.701721,544.999451 244.713135,543.107849 244.759506,538.976624 
	C244.811783,534.318298 244.645767,529.657532 244.510193,524.546448 
z"/>
<path fill="#000000" opacity="1.000000" stroke="none" 
	d="
M299.542847,667.229370 
	C292.957703,682.662964 287.681976,698.103577 284.277924,714.300232 
	C281.634216,708.741150 280.986725,702.868164 279.948700,697.148682 
	C277.509552,683.709106 274.630371,670.423767 269.675934,657.637024 
	C267.383057,651.719360 268.275208,650.304504 274.428040,649.053955 
	C281.102783,647.697327 287.811523,646.508179 294.487640,645.158020 
	C298.176392,644.411987 300.505859,645.367859 300.279816,649.546021 
	C299.967743,655.314148 302.018372,661.161865 299.542847,667.229370 
z"/>
<path fill="#000000" opacity="1.000000" stroke="none" 
	d="
M151.209641,589.557007 
	C176.058914,596.022034 201.471252,620.776917 202.760025,637.277466 
	C200.934280,638.598999 199.226212,637.418274 197.626266,636.817078 
	C179.124298,629.865479 165.628479,617.001587 155.156036,600.615845 
	C153.545181,598.095520 151.952805,595.557312 150.498459,592.945740 
	C149.891861,591.856445 148.173401,590.374451 151.209641,589.557007 
z"/>
<path fill="#000000" opacity="1.000000" stroke="none" 
	d="
M205.104019,650.301270 
	C208.428818,649.227051 207.999283,651.608704 208.345886,653.267456 
	C210.697144,664.520020 208.037308,675.179565 203.855591,685.424133 
	C200.678925,693.206482 196.621292,700.652283 190.311966,706.816711 
	C185.130264,694.225769 192.215164,659.876526 205.104019,650.301270 
z"/>
</svg>